<svg width="261" height="83" viewBox="0 0 261 83" fill="none" xmlns="http://www.w3.org/2000/svg">
<g clip-path="url(#clip0_8_636)">
<path d="M180.543 20.7918C180.543 20.8947 180.44 20.8947 180.44 20.9976C180.44 20.9976 180.337 21.1006 180.234 21.1006C180.131 21.1006 180.028 20.9976 179.925 20.9976C179.822 20.8947 179.616 20.7918 179.513 20.6888C179.309 20.5859 179.103 20.483 178.896 20.3801C178.381 20.1742 177.764 20.1742 177.249 20.3801C177.043 20.483 176.837 20.5859 176.63 20.6888C176.423 20.7918 176.322 20.9976 176.22 21.2035C176.116 21.4093 176.116 21.6152 176.116 21.8211C176.116 22.0269 176.22 22.3357 176.322 22.5416C176.424 22.7474 176.63 22.9533 176.836 23.0562C177.042 23.1591 177.351 23.365 177.66 23.365L178.587 23.6738C178.896 23.7767 179.205 23.8797 179.512 23.9826C179.822 24.0855 180.027 24.2914 180.337 24.4972C180.542 24.7031 180.748 24.909 180.851 25.2177C180.954 25.5265 181.056 25.9382 181.056 26.247C181.056 26.6588 180.953 27.0705 180.851 27.4822C180.748 27.8939 180.44 28.2027 180.233 28.5115C179.924 28.8203 179.615 29.0261 179.204 29.232C178.689 29.4378 178.278 29.4379 177.764 29.4379C177.145 29.4379 176.528 29.3349 175.91 29.1291C175.395 28.9232 174.881 28.6144 174.47 28.2027L174.881 27.5851L174.984 27.4822C175.087 27.4822 175.087 27.3793 175.19 27.3793C175.293 27.3793 175.395 27.4822 175.499 27.5851C175.602 27.688 175.808 27.791 176.014 27.8939C176.22 27.9968 176.424 28.2027 176.734 28.2027C177.043 28.3056 177.454 28.4086 177.764 28.4086C178.072 28.4086 178.381 28.4086 178.689 28.3056C178.895 28.2027 179.204 28.0998 179.308 27.8939C179.512 27.688 179.616 27.4822 179.718 27.2763C179.822 27.0705 179.822 26.7617 179.822 26.5558C179.822 26.247 179.718 26.0412 179.616 25.8353C179.512 25.6295 179.308 25.4236 179.102 25.3207C178.896 25.2177 178.587 25.1148 178.278 25.0119L177.352 24.7031C177.043 24.6002 176.734 24.4972 176.426 24.3943C176.117 24.2914 175.911 24.0855 175.602 23.8797C175.396 23.6738 175.191 23.365 175.087 23.0562C174.985 22.7474 174.882 22.3357 174.882 21.924C174.882 21.6152 174.986 21.2035 175.087 20.8947C175.191 20.5859 175.396 20.2771 175.706 19.9683C176.015 19.6595 176.324 19.4537 176.735 19.3508C177.146 19.1449 177.661 19.1449 178.073 19.1449C178.588 19.1449 179.103 19.2478 179.617 19.4537C180.028 19.6595 180.543 19.8654 180.853 20.2771L180.543 20.7918Z" fill="#007FA3"/>
<path d="M191.35 19.2478V19.7625C191.35 19.9683 191.35 20.0713 191.247 20.1742L185.483 28.3056H191.247V29.4379H183.631V28.8203C183.631 28.7173 183.631 28.5115 183.735 28.4086L189.499 20.1742H183.838V19.1449H191.351V19.2478H191.35Z" fill="#007FA3"/>
<path d="M196.085 23.6738H196.6C196.703 23.6738 196.908 23.6738 197.01 23.5709C197.114 23.5709 197.216 23.4679 197.32 23.365L200.717 19.5566C200.82 19.4537 200.923 19.3508 201.026 19.2478C201.129 19.1449 201.232 19.1449 201.437 19.1449H202.57L198.658 23.5709C198.554 23.6738 198.452 23.7767 198.349 23.8797C198.246 23.9826 198.144 23.9826 198.04 24.0855C198.144 24.0855 198.246 24.1884 198.349 24.2914C198.452 24.3943 198.554 24.4972 198.658 24.6002L202.775 29.4379H201.54H201.334H201.232L201.128 29.3349L201.025 29.232L197.525 25.2177L197.422 25.0119L197.216 24.909C197.113 24.909 197.113 24.909 197.01 24.909C196.907 24.909 196.806 24.909 196.702 24.909H196.085V29.5408H194.644V19.2478H195.982L196.085 23.6738Z" fill="#007FA3"/>
<path d="M214.921 24.2914C214.921 25.0119 214.818 25.7324 214.509 26.35C214.305 26.9675 213.892 27.4822 213.48 27.9968C213.069 28.4085 212.451 28.8203 211.833 29.0261C210.495 29.5408 209.054 29.5408 207.716 29.0261C207.098 28.8203 206.584 28.4085 206.172 27.9968C205.76 27.4822 205.349 26.9675 205.143 26.35C204.628 25.0119 204.628 23.4679 205.143 22.1298C205.349 21.5123 205.76 20.9976 206.172 20.483C206.584 20.0713 207.201 19.6595 207.716 19.4537C209.054 18.939 210.495 18.939 211.833 19.4537C212.451 19.6595 212.965 20.0713 213.48 20.483C213.892 20.9976 214.305 21.5123 214.509 22.1298C214.818 22.8503 214.921 23.5709 214.921 24.2914ZM213.583 24.2914C213.583 23.6738 213.479 23.1591 213.274 22.6445C213.17 22.1298 212.863 21.7181 212.554 21.4093C212.245 21.1005 211.833 20.7918 211.42 20.5859C210.495 20.1742 209.362 20.1742 208.437 20.5859C208.025 20.7918 207.613 20.9976 207.303 21.4093C206.995 21.8211 206.686 22.2328 206.584 22.6445C206.274 23.7767 206.274 24.9089 206.584 26.0412C206.687 26.5558 206.995 26.9675 207.303 27.2763C207.613 27.5851 208.024 27.8939 208.437 28.0998C209.362 28.4085 210.495 28.4085 211.42 28.0998C211.832 27.8939 212.245 27.688 212.554 27.2763C212.863 26.8646 213.171 26.4529 213.274 26.0412C213.48 25.4236 213.583 24.806 213.583 24.2914Z" fill="#007FA3"/>
<path d="M220.068 23.6738L222.847 22.3357V23.2621C222.847 23.365 222.743 23.4679 222.641 23.5708L220.068 24.9089V28.3056H224.494V29.4378H218.73V25.4236L217.391 26.1441V25.2177C217.391 25.1148 217.494 25.0119 217.596 24.9089L218.73 24.2913V19.2478H220.068V23.6738Z" fill="#007FA3"/>
<path d="M235.816 29.3349H234.786C234.684 29.3349 234.581 29.3349 234.478 29.232C234.375 29.1291 234.375 29.1291 234.272 29.0261L233.347 26.5558H228.818L227.891 29.0261C227.891 29.1291 227.788 29.232 227.686 29.232C227.582 29.3349 227.481 29.3349 227.377 29.3349H226.347L230.464 19.1449H231.804L235.816 29.3349ZM229.125 25.6295H232.934L231.287 21.5123C231.183 21.2035 231.081 20.8947 230.977 20.5859C230.977 20.7918 230.874 20.9976 230.874 21.1006L230.771 21.5123L229.125 25.6295Z" fill="#007FA3"/>
<path d="M184.145 41.3777C184.145 42.0982 184.042 42.8177 183.735 43.4363C183.529 44.0538 183.116 44.5685 182.705 45.0831C182.294 45.4949 181.676 45.9066 181.161 46.1124C180.543 46.3183 179.823 46.5242 179.103 46.4212H175.294V36.2312H179.103C179.823 36.2312 180.543 36.3341 181.161 36.6429C181.779 36.8488 182.294 37.2605 182.705 37.6722C183.116 38.0839 183.529 38.7015 183.735 39.3191C184.042 39.9367 184.145 40.6572 184.145 41.3777ZM182.807 41.3777C182.807 40.7601 182.704 40.2455 182.498 39.7308C182.395 39.2162 182.087 38.8044 181.778 38.4957C181.469 38.1869 181.057 37.8781 180.646 37.6722C180.131 37.4664 179.719 37.3634 179.205 37.3634H176.734V45.289H179.204C179.718 45.289 180.233 45.1861 180.645 44.9802C181.055 44.7744 181.468 44.5685 181.777 44.1568C182.086 43.847 182.395 43.3323 182.497 42.9216C182.704 42.5099 182.807 41.8923 182.807 41.3777Z" fill="#007FA3"/>
<path d="M188.88 45.289H193.306V46.4212H187.542V36.2312H188.88V45.289Z" fill="#007FA3"/>
<path d="M204.628 46.4212H203.599C203.496 46.4212 203.393 46.4212 203.29 46.3183C203.186 46.2154 203.186 46.2154 203.084 46.1124L202.158 43.6432H197.629L196.703 46.1124C196.703 46.2164 196.6 46.3183 196.497 46.3183C196.394 46.4212 196.292 46.4212 196.188 46.4212H195.159L199.276 36.2322H200.717L204.628 46.4212ZM197.938 42.6128H201.746L200.098 38.4957C199.995 38.1869 199.893 37.8781 199.789 37.5693C199.687 37.7752 199.687 37.981 199.687 38.0839C199.687 38.1869 199.583 38.3927 199.583 38.4957L197.938 42.6128Z" fill="#007FA3"/>
<path d="M182.292 53.3175V54.4497H178.999V63.5075H177.558V54.4497H174.264V53.3175H182.292Z" fill="#007FA3"/>
<path d="M186.924 57.7435L189.703 56.3035V57.2288C189.703 57.3328 189.601 57.4347 189.498 57.5387L186.924 58.8767V62.2734H191.35V63.4056H185.586V59.4943L184.248 60.2148V59.2885C184.248 59.1855 184.351 59.0836 184.454 58.9797L185.586 58.3621V53.3185H186.924V57.7435Z" fill="#007FA3"/>
<path d="M198.247 62.4782C198.658 62.4782 199.07 62.3742 199.38 62.2723C199.689 62.1694 199.997 61.9636 200.203 61.6548C200.409 61.345 200.614 61.0362 200.718 60.7284C200.821 60.3167 200.924 60.0079 200.924 59.5962V53.4204H202.262V59.5962C202.262 60.1108 202.158 60.7284 201.953 61.2431C201.643 62.2723 200.82 62.9929 199.894 63.4046C199.38 63.6104 198.761 63.7144 198.247 63.7144C197.629 63.7144 197.114 63.6104 196.6 63.4046C196.085 63.1997 195.673 62.8899 195.262 62.5811C194.953 62.1694 194.644 61.7577 194.438 61.2431C194.233 60.7284 194.129 60.2138 194.129 59.5962V53.4204H195.467V59.5962C195.467 60.0069 195.571 60.4196 195.673 60.7284C195.777 61.0372 195.982 61.346 196.188 61.6548C196.394 61.9636 196.703 62.0655 197.011 62.2723C197.526 62.3753 197.835 62.4782 198.247 62.4782Z" fill="#007FA3"/>
<path d="M211.319 60.2138L211.422 60.6255C211.422 60.5215 211.526 60.4196 211.526 60.2138C211.628 60.1109 211.628 60.0079 211.731 59.8021L215.23 53.5234C215.23 53.4204 215.334 53.4204 215.436 53.3175C215.539 53.3175 215.642 53.3175 215.745 53.3175H216.774V63.5075H215.539V55.9937C215.539 55.8897 215.539 55.7878 215.539 55.6839C215.539 55.5809 215.539 55.479 215.539 55.3751L212.039 61.7577C211.935 61.9636 211.73 62.0665 211.524 62.0665H211.319C211.113 62.0665 210.907 61.9636 210.804 61.7577L207.201 55.3761V55.6849C207.201 55.7888 207.201 55.8907 207.201 55.9947V63.5086H205.966V53.3185H206.996C207.1 53.3185 207.201 53.3185 207.304 53.3185C207.407 53.3175 207.407 53.4204 207.51 53.5234L211.01 59.8021C211.113 59.905 211.216 60.0079 211.319 60.2138Z" fill="#007FA3"/>
<path d="M229.022 63.5075H227.993C227.889 63.5075 227.787 63.5075 227.684 63.4036C227.58 63.3006 227.58 63.3006 227.479 63.1987L226.552 60.7284H222.023L221.097 63.1987C221.097 63.3017 220.994 63.4036 220.891 63.4036C220.788 63.5075 220.685 63.5075 220.582 63.5075H219.553L223.67 53.3175H225.111L229.022 63.5075ZM222.332 59.6991H226.14L224.493 55.582C224.39 55.2732 224.287 54.9644 224.184 54.6556C224.081 54.8614 224.081 55.0673 224.081 55.1702C224.081 55.2742 223.977 55.4801 223.977 55.582L222.332 59.6991Z" fill="#007FA3"/>
<path d="M238.595 61.4489C238.698 61.4489 238.698 61.4489 238.801 61.5519L239.315 62.1694C238.904 62.6841 238.389 62.9929 237.772 63.3017C237.051 63.6104 236.331 63.7134 235.609 63.7134C234.89 63.7134 234.271 63.6094 233.654 63.3017C233.036 63.0958 232.521 62.6841 232.11 62.2724C231.699 61.7577 231.39 61.2431 231.184 60.6255C230.978 59.905 230.773 59.1845 230.875 58.4629C230.875 57.7424 230.978 57.023 231.287 56.4044C231.492 55.7868 231.905 55.2721 232.316 54.7575C232.727 54.3458 233.346 53.934 233.963 53.7282C234.581 53.4194 235.301 53.3165 236.022 53.3165C236.639 53.3165 237.36 53.4204 237.977 53.6253C238.492 53.8311 239.007 54.1399 239.417 54.5516L239.007 55.1692L238.904 55.2732C238.801 55.2732 238.801 55.2732 238.698 55.3761C238.595 55.3761 238.595 55.3761 238.493 55.2732L238.287 55.0673C238.183 54.9644 238.081 54.9644 237.978 54.8614C237.874 54.7585 237.669 54.7585 237.567 54.6556C237.361 54.5526 237.155 54.5527 236.949 54.4508C236.639 54.4508 236.434 54.3468 236.125 54.3468C235.61 54.3468 235.095 54.4507 234.581 54.6556C234.17 54.8614 233.757 55.0673 233.449 55.48C233.14 55.8907 232.831 56.3035 232.728 56.7142C232.522 57.2288 232.419 57.8474 232.419 58.3621C232.419 58.9797 232.522 59.4943 232.728 60.1119C232.934 60.6265 233.14 61.0372 233.449 61.346C233.757 61.6558 234.169 61.9646 234.581 62.1705C234.992 62.3753 235.507 62.4793 236.022 62.4793C236.331 62.4793 236.536 62.4793 236.845 62.4793C237.051 62.4793 237.257 62.3753 237.566 62.2734C237.772 62.1705 237.977 62.0675 238.183 61.9646C238.389 61.8606 238.595 61.6558 238.698 61.5529C238.389 61.5519 238.492 61.4489 238.595 61.4489Z" fill="#007FA3"/>
<path d="M249.711 53.3175V53.8322C249.711 54.038 249.711 54.1409 249.608 54.2439L243.844 62.3753H249.711V63.5075H242.094V62.9929C242.094 62.8889 242.094 62.6841 242.197 62.5812L247.961 54.4508H242.3V53.3175H249.711Z" fill="#007FA3"/>
<path d="M256.813 59.4933V63.5075H255.475V59.4933L251.769 53.3175H253.004C253.107 53.3175 253.21 53.3175 253.313 53.4215C253.417 53.5234 253.417 53.5234 253.52 53.6263L255.887 57.5386C255.991 57.6416 256.093 57.8474 256.093 57.9493C256.196 58.1552 256.196 58.2581 256.299 58.3611C256.299 58.2571 256.402 58.0523 256.505 57.9493C256.608 57.7435 256.608 57.6405 256.71 57.5386L259.078 53.6263C259.078 53.5234 259.181 53.4215 259.283 53.4215C259.387 53.3175 259.49 53.3175 259.593 53.3175H260.827L256.813 59.4933Z" fill="#007FA3"/>
<path d="M30.6773 51.7736H19.9726V82.7554H11.1207V51.7736H0.518921V44.7744H30.6773V51.7736Z" fill="#3EB1C8"/>
<path d="M112.506 44.7744V80.6968C112.506 81.829 111.58 82.7554 110.448 82.7554H104.787V59.905C104.787 59.3903 104.787 58.8757 104.787 58.2571C104.787 57.6395 104.89 57.023 104.89 56.4044C104.89 56.4044 98.405 66.2866 96.6552 68.653C96.3464 68.9618 96.0376 69.2706 95.6259 69.4764C95.3171 69.5793 95.0083 69.5793 94.7005 69.5793H93.6712C93.3624 69.5793 93.0526 69.5793 92.7449 69.4764C92.3342 69.2706 91.9214 69.0647 91.7156 68.653C89.9658 66.2856 83.4812 56.3014 83.4812 56.3014C83.4812 56.919 83.5852 57.5366 83.5852 58.1542C83.5852 58.7717 83.5852 59.2864 83.5852 59.801V82.6514H75.9684V44.7744H82.8626C83.1714 44.7744 83.4802 44.7744 83.686 44.7744C83.8919 44.7744 84.0978 44.8773 84.3036 44.9802C84.5095 45.0831 84.7153 45.1861 84.8183 45.3909C85.0241 45.5968 93.979 58.7717 94.2878 59.4922C94.4936 58.6688 103.551 45.5968 103.757 45.3909C103.86 45.1861 104.066 45.0821 104.272 44.9802C104.478 44.8763 104.684 44.8763 104.89 44.7744C105.095 44.7744 105.404 44.7744 105.714 44.7744H112.506Z" fill="#3EB1C8"/>
<path d="M30.6773 6.99921H19.9726V37.981H11.1207V6.99921H0.518921V2.05859C0.518921 0.926366 1.44529 0 2.57751 0H30.6773V6.99921Z" fill="#007FA3"/>
<path d="M50.4397 21.4093V30.2613H62.3795V36.7458H50.4397V45.8036L41.5878 52.597V16.6746C41.5878 15.5423 42.5141 14.616 43.6464 14.616H65.9821V21.4093H50.4397Z" fill="#007FA3"/>
<path d="M112.506 37.981H103.654C103.14 37.981 102.625 37.8781 102.213 37.5693C101.904 37.2605 101.596 36.9517 101.39 36.54L93.7731 23.2621C93.6701 23.5709 93.4643 23.9826 93.3624 24.2914L86.2602 36.6429C86.0544 36.9517 85.7456 37.3634 85.4368 37.5693C85.128 37.8781 84.6134 37.981 84.2016 37.981H75.9673L88.2159 18.4244L76.378 0H85.2299C85.6416 0 86.0533 0 86.4651 0.205859C86.7739 0.411718 86.9797 0.617577 87.1856 0.926366L94.6994 13.7926C94.8024 13.5867 94.9053 13.3808 95.0082 13.175L95.4199 12.5574L102.006 1.23515C102.212 0.926366 102.418 0.617577 102.83 0.411718C103.14 0.205859 103.448 0.10293 103.859 0.10293H112.299L100.361 18.1156L112.506 37.981Z" fill="#007FA3"/>
<path d="M50.4397 37.7751V45.5978H62.3795V52.0823H50.4397V61.1402H65.9821V65.8749C65.9821 67.0071 65.0567 67.9335 63.9235 67.9335H41.5878V44.5685L50.4397 37.7751Z" fill="#3EB1C8"/>
<path d="M144.516 0H143.591V82.7554H144.516V0Z" fill="#007FA3"/>
</g>
<defs>
<clipPath id="clip0_8_636">
<rect width="260" height="82.8583" fill="white" transform="translate(0.518921)"/>
</clipPath>
</defs>
</svg>
