<svg width="24" height="24" viewBox="0 0 24 24" fill="none" xmlns="http://www.w3.org/2000/svg">
<path d="M3 19C3 16.7909 5.68629 15 9 15C12.3137 15 15 16.7909 15 19" stroke="white" stroke-width="2" stroke-linecap="round" stroke-linejoin="round"/>
<path d="M16.8281 5.17163C17.1996 5.54307 17.4942 5.98402 17.6952 6.46932C17.8962 6.95463 17.9997 7.47477 17.9997 8.00006C17.9997 8.52535 17.8962 9.04549 17.6952 9.53079C17.4942 10.0161 17.1996 10.4571 16.8281 10.8285" stroke="white" stroke-width="2" stroke-linecap="round" stroke-linejoin="round"/>
<path d="M9 12C11.2091 12 13 10.2091 13 8C13 5.79086 11.2091 4 9 4C6.79086 4 5 5.79086 5 8C5 10.2091 6.79086 12 9 12Z" stroke="white" stroke-width="2" stroke-linecap="round" stroke-linejoin="round"/>
<path d="M19 3C19.6566 3.65661 20.1775 4.43612 20.5328 5.29402C20.8882 6.15192 21.0711 7.07141 21.0711 8C21.0711 8.92858 20.8882 9.84808 20.5328 10.706C20.1775 11.5639 19.6566 12.3434 19 13" stroke="white" stroke-width="2" stroke-linecap="round" stroke-linejoin="round"/>
</svg>
